<?xml version="1.0" encoding="utf-8"?>
<svg xmlns="http://www.w3.org/2000/svg" viewBox="0 0 500 500">
  <g transform="matrix(0.091617, 0, 0, -0.091617, -181.317245, 1814.567627)" fill="#000000" stroke="none" style="">
    <path d="M 3745.2 19241.8 C 3731.2 19237.8 3679.2 19196.8 3630.2 19151.8 C 3540.2 19069.8 3431.2 18992.8 2942.2 18663.8 C 2800.2 18567.8 2656.2 18454.8 2622.2 18412.8 L 2560.2 18335.8 L 2554.2 17122.8 C 2547.2 15750.8 2546.2 15774.8 2640.2 15664.8 C 2705.2 15588.8 3149.2 15293.8 3584.2 15037.8 C 3685.2 14978.8 3769.2 14922.8 3769.2 14912.8 C 3770.2 14903.8 5630.2 14904.8 5630.2 14913.8 C 5630.2 14922.8 6163.2 15253.8 6490.2 15471.8 C 6876.2 15727.8 6789.145 15805.06 6786.489 16917.073 C 6782.639 18528.725 6782.627 18394.812 6510.935 18622.464 C 6314.291 18787.233 5899.2 19047.8 5825.2 19117.8 C 5825.2 19117.8 5706.087 19212.214 5689.2 19223.562 C 5666.133 19239.063 4730.2 19247.8 4730.2 19247.8 C 4202.2 19248.8 3759.2 19245.8 3745.2 19241.8 Z M 5595.2 18992.8 C 5640.2 18951.8 5730.2 18802.8 5730.2 18770.8 C 5730.2 18764.8 5276.2 18759.8 4720.2 18759.8 C 4028.2 18759.8 3710.2 18766.8 3710.2 18780.8 C 3710.2 18817.8 3773.2 18927.8 3826.2 18984.8 L 3877.2 19039.8 L 4711.2 19039.8 L 5544.2 19039.8 L 5595.2 18992.8 Z M 3487.2 18619.8 C 3462.2 18603.8 3388.2 18542.8 3322.2 18485.8 L 3202.2 18380.8 L 3131.2 18451.8 C 3073.2 18509.8 3066.2 18525.8 3090.2 18539.8 C 3107.2 18549.8 3210.2 18619.8 3320.2 18694.8 L 3520.2 18832.8 L 3526.2 18741.8 C 3532.2 18664.8 3525.2 18644.8 3487.2 18619.8 Z M 6004.2 18735.8 C 6057.2 18700.8 6151.2 18633.8 6213.2 18585.8 L 6327.2 18499.8 L 6266.2 18438.8 L 6205.2 18377.8 L 6152.2 18425.8 C 6124.2 18451.8 6055.2 18506.8 6001.2 18547.8 C 5910.2 18615.8 5901.2 18630.8 5895.2 18710.8 C 5888.2 18816.8 5884.2 18815.8 6004.2 18735.8 Z M 3920.2 18344.8 C 3920.2 18018.8 3942.2 17976.8 4326.2 17586.8 L 4624.2 17283.8 L 4637.2 17158.8 C 4661.2 16930.8 4674.2 16955.8 4349.2 16619.8 C 3940.2 16195.8 3829.2 15926.8 3942.2 15631.8 C 3952.2 15604.8 3937.2 15599.8 3850.2 15599.8 L 3745.2 15599.8 L 3753.2 15846.8 C 3766.2 16221.8 3767.245 16342.447 4514.856 17028.456 C 4552.738 17063.216 4510.032 17120.971 4486.174 17149.121 C 4017.893 17701.641 3750.2 17978.8 3750.2 18360.8 L 3750.2 18579.8 L 3835.2 18579.8 L 3920.2 18579.8 L 3920.2 18344.8 Z M 5320.2 18518.8 C 5339.2 18433.8 5349.2 18436.8 5007.2 18435.8 C 4193.2 18434.8 4194.2 18434.8 4159.2 18488.8 C 4103.2 18573.8 4124.2 18576.8 4728.2 18578.8 L 5307.2 18580.8 L 5320.2 18518.8 Z M 5665.2 18344.8 C 5650.2 17961.8 5624.2 17915.8 5143.2 17412.8 C 4929.2 17187.8 4868.428 17104.452 4881.272 17051.557 C 4891.048 17011.298 5018.2 16896.8 5186.2 16715.8 C 5637.2 16230.8 5670.2 16168.8 5670.2 15808.8 L 5670.2 15604.8 L 5569.2 15604.8 C 5483.2 15604.8 5470.2 15609.8 5481.2 15636.8 C 5596.2 15907.8 5475.2 16200.8 5080.2 16608.8 L 4790.2 16907.8 L 4790.2 17108.8 L 4790.2 17309.8 L 5069.2 17583.8 C 5468.2 17975.8 5529.2 18094.8 5502.2 18424.8 L 5489.2 18579.8 L 5582.2 18579.8 L 5675.2 18579.8 L 5665.2 18344.8 Z M 3019.2 18401.8 C 3053.2 18369.8 3131.2 18303.8 3193.2 18256.8 C 3453.2 18055.8 3658.2 17867.8 3793.2 17703.8 C 3873.2 17608.8 4020.2 17444.8 4120.2 17339.8 C 4220.2 17235.8 4345.397 17090.991 4360.397 17071.991 C 4366.91 17062.071 4354.605 17037.33 4196.968 16879.149 C 3921.508 16602.738 3786.2 16437.8 3711.2 16339.8 C 3600.2 16192.8 2998.2 15675.8 2947.2 15683.8 C 2799.2 15705.8 2827.2 15742.8 3300.2 16152.8 C 3421.2 16257.8 3683.2 16504.8 3883.2 16702.8 L 4245.2 17060.8 L 3893.2 17407.8 C 3699.2 17597.8 3423.2 17855.8 3280.2 17980.8 C 3137.2 18105.8 2980.2 18246.8 2930.2 18293.8 L 2840.2 18380.8 L 2890.2 18419.8 C 2953.2 18469.8 2947.2 18469.8 3019.2 18401.8 Z M 6490.2 18409.8 C 6524.2 18368.8 6446.2 18281.8 6090.2 17963.8 C 5931.2 17820.8 5688.384 17591.588 5554.2 17451.8 C 5428.248 17320.588 5329.99 17210.155 5260.115 17155.5 L 5184.115 17078.8 L 5478.2 16753.8 C 5655.2 16575.8 5921.2 16325.8 6070.2 16199.8 C 6543.2 15796.8 6598.2 15739.8 6551.2 15696.8 C 6494.2 15642.8 6496.2 15641.8 6227.2 15857.8 C 5941.2 16086.8 5480.2 16599.8 5423.2 16659.8 C 5366.2 16720.8 5259.2 16837.8 5186.2 16920.8 L 5052.2 17071.8 L 5136.2 17173.8 C 5391.2 17479.8 6111.2 18214.8 6300.2 18360.8 C 6409.2 18444.8 6452.2 18455.8 6490.2 18409.8 Z M 6605.2 17829.8 C 6609.2 17532.8 6636.568 15881.272 6590.151 15864.082 C 6575.675 15858.721 6494.817 15948.363 6488.708 15966.001 C 6470.767 16017.798 6470.2 17376.8 6470.2 17376.8 L 6470.2 17750.8 L 6470.2 18124.8 L 6535.2 18197.8 L 6600.2 18269.8 L 6605.2 17829.8 Z M 2950.2 17030.8 L 2950.2 15965.8 L 2881.2 15902.8 C 2842.2 15867.8 2806.2 15839.8 2801.2 15839.8 C 2795.2 15839.8 2790.2 16382.8 2791.2 17046.8 L 2791.2 18253.8 L 2871.2 18174.8 L 2950.2 18094.8 L 2950.2 17030.8 Z M 5290.2 18121.8 C 5290.2 18068.8 5171.2 17923.8 4953.2 17710.8 C 4853.2 17611.8 4756.2 17499.8 4738.2 17461.8 L 4705.2 17392.8 L 4675.2 17450.8 C 4658.2 17483.8 4547.2 17609.8 4429.2 17732.8 C 4208.2 17961.8 4164.2 18016.8 4141.2 18094.8 C 4122.2 18156.8 4169.2 18153.8 4283.2 18086.8 C 4370.2 18035.8 4382.2 18034.8 4729.2 18031.8 C 4729.2 18031.8 4963.274 18018.092 5076.228 18054.472 C 5110.752 18065.592 5173.2 18093.8 5173.2 18093.8 C 5275.2 18169.8 5290.2 18172.8 5290.2 18121.8 Z M 3308.2 17060.8 L 3307.2 16389.8 L 3225.2 16319.8 L 3144.2 16249.8 L 3157.2 16647.8 C 3164.2 16866.8 3170.2 17230.8 3170.2 17456.8 L 3170.2 17867.8 L 3240.2 17799.8 L 3310.2 17731.8 L 3308.2 17060.8 Z M 6251.117 17069.8 C 6252.117 16635.8 6256.159 16277.992 6250.159 16277.992 C 6244.159 16277.992 6217.2 16304.8 6179.2 16334.8 L 6110.2 16389.8 L 6110.2 17064.8 L 6110.2 17740.8 L 6175.2 17799.8 C 6211.2 17831.8 6226.309 17862.417 6234.309 17862.417 C 6242.309 17863.417 6251.117 17504.8 6251.117 17069.8 Z M 4797.2 16664.8 C 4843.2 16612.8 4967.2 16477.8 5073.2 16365.8 C 5251.2 16177.8 5321.2 16063.8 5282.2 16025.8 C 5276.2 16019.8 5171.2 16106.8 5049.2 16220.8 L 4827.2 16426.8 L 4777.2 16363.8 C 4715.2 16284.8 4699.2 16283.8 4660.2 16359.8 C 4643.2 16392.8 4618.2 16419.8 4604.2 16419.8 C 4558.2 16419.8 4221.2 16051.8 4170.2 15944.8 C 4109.2 15816.8 4081.2 15810.8 4097.2 15928.8 C 4121.2 16106.8 4167.2 16173.8 4577.2 16624.8 C 4722.2 16784.8 4697.2 16780.8 4797.2 16664.8 Z M 4776.2 16036.8 C 4828.2 16008.8 5169.2 15750.8 5270.2 15662.8 L 5340.2 15601.8 L 4735.2 15600.8 C 4375.2 15599.8 4130.2 15607.8 4130.2 15618.8 C 4130.2 15650.8 4427.2 15906.8 4555.2 15984.8 C 4688.2 16065.8 4710.2 16071.8 4776.2 16036.8 Z M 3535.2 15395.8 C 3540.2 15348.8 3541.2 15306.8 3539.2 15303.8 C 3534.2 15297.8 3165.2 15544.8 3122.2 15581.8 C 3112.2 15590.8 3130.2 15623.8 3161.2 15656.8 L 3217.2 15716.8 C 3217.2 15716.8 3526.2 15475.8 3535.2 15395.8 Z M 6201.879 15686.994 C 6223.712 15690.644 6254.369 15627.517 6263.2 15611.8 C 6266.162 15606.528 6242.2 15559.8 6108.2 15460.8 C 5898.2 15303.8 5900.2 15304.8 5919.2 15428.8 C 5939.2 15564.8 6126.215 15674.346 6201.879 15686.994 Z M 5739.2 15394.8 C 5716.2 15317.8 5631.2 15182.8 5585.2 15150.8 C 5518.2 15103.8 3921.2 15103.8 3854.2 15150.8 C 3807.2 15183.8 3691.2 15371.8 3690.2 15414.8 C 3690.2 15434.8 3910.2 15439.8 4721.2 15439.8 L 5753.2 15439.8 L 5739.2 15394.8 Z"/>
    <path d="M 4403.05 17907 C 4429.54 17867.2 4674.488 17668.403 4653.198 17678.703 C 4676.198 17679.703 4740.069 17707.552 4729.069 17726.278 C 4717.365 17743.345 4673.698 17744.273 4579.179 17797.703 C 4517.814 17832.392 4460.05 17889 4433.05 17907 C 4389.05 17935 4385.2 17933.9 4403.05 17907 Z"/>
    <path d="M 4467.85 15767.9 C 4592.85 15746.9 5009.85 15746.9 4897.85 15767.9 C 4848.85 15776.9 4713.85 15782.9 4597.85 15782.9 C 4458.85 15781.9 4414.85 15776.9 4467.85 15767.9 Z"/>
    <path d="M 3993.27 15286 C 4088.27 15266 5468.27 15255 5487.27 15273 C 5504.27 15290 5487.27 15290 4585.27 15296 C 4222.27 15298 3956.27 15294 3993.27 15286 Z"/>
  </g>
  <text style="fill: rgb(255, 255, 255); font-family: Roboto; font-size: 52.5px; white-space: pre;" x="142.463" y="263.413">ϰ</text>
  <text style="fill: rgb(255, 255, 255); font-family: Roboto; font-size: 55.6px; white-space: pre;" x="327.634" y="262.469" dx="0.551" dy="1.652">σ</text>
</svg>